<svg xmlns="http://www.w3.org/2000/svg" width="18" height="18" viewBox="0 0 18 18" fill="none"><g id="check-mark (1) 1"><g id="7-Check"><path id="Vector" d="M2.75001 8.33401C2.43935 8.33488 2.13529 8.42369 1.873 8.59016C1.61071 8.75663 1.40091 8.99395 1.26788 9.27468C1.13484 9.55541 1.08401 9.86807 1.12125 10.1765C1.1585 10.4849 1.2823 10.7765 1.47834 11.0175L5.65746 16.1369C5.80646 16.3219 5.99746 16.4687 6.2146 16.5651C6.43173 16.6615 6.66872 16.7046 6.90589 16.691C7.41315 16.6638 7.87111 16.3924 8.16309 15.9463L16.8442 1.9654C16.8456 1.96308 16.8471 1.96076 16.8486 1.95848C16.9301 1.83341 16.9036 1.58557 16.7355 1.42987C16.6893 1.38711 16.6349 1.35426 16.5755 1.33334C16.5162 1.31242 16.4531 1.30388 16.3904 1.30823C16.3276 1.31259 16.2663 1.32975 16.2104 1.35867C16.1545 1.38758 16.1051 1.42763 16.0653 1.47636C16.0622 1.48019 16.059 1.48396 16.0557 1.48768L7.30068 11.3795C7.26737 11.4171 7.22691 11.4478 7.18165 11.4697C7.13639 11.4915 7.08724 11.5042 7.03705 11.5069C6.98685 11.5096 6.93662 11.5023 6.88927 11.4855C6.84191 11.4686 6.79838 11.4425 6.7612 11.4087L3.85559 8.76456C3.55381 8.48792 3.15939 8.33432 2.75001 8.33401Z" fill="#30665F"></path></g></g></svg>